<?xml version="1.0" standalone="no"?>
<!DOCTYPE svg PUBLIC "-//W3C//DTD SVG 20010904//EN"
 "http://www.w3.org/TR/2001/REC-SVG-20010904/DTD/svg10.dtd">
<svg version="1.0" xmlns="http://www.w3.org/2000/svg"
 width="840.000000pt" height="824.000000pt" viewBox="0 0 840.000000 824.000000"
 preserveAspectRatio="xMidYMid meet">

<g transform="translate(0.000000,824.000000) scale(0.100000,-0.100000)"
fill="#fff" stroke="none">
<path d="M3790 7720 c-309 -21 -529 -76 -849 -211 -230 -97 -550 -271 -731
-397 -97 -67 -280 -204 -280 -208 0 -10 18 -1 50 26 19 16 41 35 48 40 6 6 12
8 12 5 0 -3 6 -1 13 5 49 41 458 288 607 367 52 27 149 74 215 102 66 29 134
59 150 66 52 23 205 75 298 101 188 53 383 74 683 74 285 0 447 -16 899 -91
289 -47 395 -59 540 -59 88 0 119 4 154 20 24 11 42 22 39 25 -2 2 -33 0 -69
-6 -104 -18 -336 0 -599 45 -52 9 -144 25 -205 36 -303 53 -710 78 -975 60z"/>
<path d="M5751 7631 c-23 -12 -30 -20 -21 -26 7 -4 10 -20 8 -36 -4 -24 -2
-27 11 -17 9 6 -6 -11 -34 -38 -67 -66 -100 -89 -50 -35 l40 44 -45 -32 c-74
-52 -301 -310 -403 -457 -159 -228 -243 -392 -323 -628 -46 -135 -42 -146 5
-16 21 58 48 123 60 145 25 45 25 46 -33 -125 -77 -224 -105 -371 -186 -975
-53 -405 -123 -1038 -165 -1510 -8 -93 -20 -222 -26 -285 -14 -140 -11 -171
17 -185 24 -12 21 -35 -5 -35 -33 0 -41 22 -42 120 l-2 95 -11 -95 c-15 -129
-10 -153 36 -164 29 -7 38 -15 40 -35 3 -22 6 -17 22 27 13 38 25 56 43 63 45
17 65 49 143 234 50 119 338 703 405 825 26 47 75 137 108 200 33 63 71 132
83 152 13 21 24 40 24 43 0 3 28 49 61 103 249 394 486 708 698 925 270 278
597 488 919 592 148 48 220 60 372 60 171 0 223 -13 295 -77 68 -60 89 -107
89 -198 0 -61 1 -68 8 -40 9 40 2 135 -16 205 -10 41 -20 54 -60 82 -68 46
-104 55 -254 60 -278 10 -565 -80 -895 -281 -161 -98 -394 -284 -512 -409
-275 -291 -608 -776 -915 -1332 -94 -170 -321 -615 -398 -780 -151 -325 -154
-331 -163 -310 -11 29 -11 153 1 160 5 3 9 16 9 28 -3 67 13 353 20 362 11 13
21 105 26 241 2 62 11 136 19 165 11 37 18 115 22 258 6 212 21 411 49 611 8
63 25 185 36 270 12 85 23 189 24 230 4 125 28 305 46 345 4 11 24 65 42 120
19 55 46 131 61 170 14 38 26 78 26 88 0 16 17 56 47 112 13 25 47 133 49 160
1 16 -3 14 -23 -10 -22 -27 -22 -24 6 32 67 134 264 397 387 513 l58 55 -47
-55 c-26 -30 -80 -93 -120 -140 -74 -86 -147 -183 -147 -194 0 -3 15 3 33 14
17 11 40 20 49 20 10 0 36 24 59 53 22 28 118 132 212 230 187 195 227 248
207 272 -11 14 -16 14 -39 0 -26 -16 -26 -16 2 9 46 43 19 60 -42 27z"/>
<path d="M5615 7515 c-22 -8 -52 -16 -66 -19 -24 -5 -37 -36 -15 -36 15 1 92
36 119 55 25 17 17 17 -38 0z"/>
<path d="M3925 7479 c-128 -7 -172 -13 -367 -47 -98 -17 -139 -40 -50 -28 43
6 113 1 347 -24 105 -11 220 -27 261 -35 16 -3 54 -10 84 -15 87 -14 153 -28
180 -38 14 -5 47 -12 73 -16 54 -8 57 -9 142 -32 33 -9 87 -22 120 -30 96 -21
216 -63 243 -84 15 -12 19 -20 11 -21 -8 0 -5 -4 6 -9 13 -6 15 -9 5 -9 -8 -1
-2 -8 14 -16 32 -17 50 -19 41 -5 -3 5 2 18 12 28 10 11 43 54 73 97 61 86
122 155 139 155 6 0 11 3 11 8 0 4 -30 8 -68 8 -37 1 -130 13 -207 27 -77 14
-158 28 -180 31 -22 2 -69 9 -105 15 -148 23 -248 32 -402 37 -90 2 -183 6
-208 7 -25 2 -103 0 -175 -4z"/>
<path d="M3288 7243 c7 -3 16 -2 19 1 4 3 -2 6 -13 5 -11 0 -14 -3 -6 -6z"/>
<path d="M3365 7223 c-238 -11 -475 -47 -680 -102 -60 -17 -111 -28 -113 -26
-2 2 35 16 82 31 97 32 108 43 19 20 -164 -43 -357 -122 -509 -208 -124 -71
-388 -264 -410 -300 -5 -7 25 15 66 48 102 84 277 200 387 257 50 26 95 47
100 47 4 0 -35 -23 -87 -51 -116 -62 -356 -222 -429 -287 -30 -26 -51 -41 -47
-34 22 37 -24 -2 -135 -115 -188 -193 -287 -313 -415 -507 -86 -131 -196 -341
-248 -472 -41 -105 -121 -378 -130 -444 -6 -51 -8 -57 40 120 30 107 84 263
90 257 2 -2 -5 -30 -16 -63 -59 -169 -120 -464 -141 -680 -15 -159 -6 -576 16
-713 37 -232 116 -473 202 -615 21 -36 39 -63 41 -61 1 1 -10 36 -26 76 -127
320 -164 525 -166 919 -1 140 3 273 7 295 19 93 36 211 33 220 -6 17 31 197
42 204 5 3 20 47 32 96 13 50 41 136 62 193 22 57 38 106 35 108 -8 8 70 175
97 208 14 17 28 45 32 61 7 35 62 135 74 135 4 0 32 39 61 86 30 48 93 136
141 197 48 61 86 113 85 116 -2 11 28 51 38 51 13 0 110 100 148 153 15 21 35
41 45 44 17 6 212 153 212 159 0 2 -8 1 -17 -2 -15 -5 -15 -4 -3 4 8 6 18 8
22 6 7 -5 110 57 203 123 47 33 95 57 147 73 21 6 41 17 45 24 9 13 193 90
200 83 6 -6 193 50 207 62 6 6 49 15 95 20 46 6 89 15 95 20 16 13 142 32 206
32 30 0 124 6 207 14 104 10 161 12 178 5 14 -5 94 -10 178 -9 119 1 174 -4
252 -21 55 -11 138 -23 184 -25 47 -3 87 -9 90 -14 6 -10 97 -27 119 -22 10 2
63 -9 172 -34 3 -1 16 -6 30 -13 29 -13 152 -43 189 -46 54 -5 110 -19 106
-26 -3 -4 4 -10 15 -13 11 -3 20 -13 20 -22 0 -9 -39 -74 -87 -143 -260 -377
-351 -530 -426 -717 -24 -61 -52 -140 -61 -176 -54 -216 -126 -802 -210 -1699
-14 -146 -37 -389 -51 -540 -81 -868 -187 -1370 -366 -1747 -48 -100 -138
-244 -185 -294 -47 -50 -23 -38 27 14 198 203 315 472 424 971 70 323 104 581
175 1336 132 1407 188 1842 266 2068 63 182 189 409 370 665 58 81 110 159
116 175 7 15 22 41 34 57 38 51 46 82 30 118 -19 47 -44 64 -115 82 -70 19
-95 14 -29 -4 24 -7 54 -21 68 -32 l25 -20 -25 10 c-37 15 -326 88 -480 121
-162 35 -400 75 -530 90 -109 12 -410 31 -455 28 -16 -1 -57 -3 -90 -5z m1610
-303 c-5 -8 -11 -8 -17 -2 -6 6 -7 16 -3 22 5 8 11 8 17 2 6 -6 7 -16 3 -22z
m-3246 -322 c-3 -2 -47 -43 -99 -93 l-95 -90 90 93 c49 50 94 92 99 92 5 0 7
-1 5 -2z m-247 -255 c-130 -149 -262 -340 -377 -551 -73 -132 -86 -143 -24
-20 58 115 215 367 249 398 3 3 18 23 34 45 48 65 160 194 169 195 5 0 -18
-30 -51 -67z"/>
<path d="M2948 7203 c7 -3 16 -2 19 1 4 3 -2 6 -13 5 -11 0 -14 -3 -6 -6z"/>
<path d="M2434 7169 c-33 -17 -79 -47 -104 -67 -25 -21 -64 -50 -88 -66 -76
-52 -37 -39 108 34 78 40 139 74 136 77 -3 3 1 12 9 20 17 16 20 33 6 33 -5 0
-35 -14 -67 -31z"/>
<path d="M2798 7173 c7 -3 16 -2 19 1 4 3 -2 6 -13 5 -11 0 -14 -3 -6 -6z"/>
<path d="M2758 7163 c7 -3 16 -2 19 1 4 3 -2 6 -13 5 -11 0 -14 -3 -6 -6z"/>
<path d="M5015 6799 c-11 -27 -24 -49 -30 -49 -5 0 -21 -17 -35 -38 -13 -20
-28 -42 -33 -49 -15 -21 22 -8 51 18 41 36 70 81 77 121 10 54 -9 53 -30 -3z"/>
<path d="M1441 6464 c-594 -616 -974 -1363 -1077 -2119 -19 -139 -25 -559 -8
-586 4 -8 9 -48 10 -89 2 -41 7 -88 13 -105 8 -24 9 -18 4 30 -3 33 -3 58 0
55 3 -3 21 -68 41 -145 84 -333 226 -628 405 -842 28 -35 49 -63 46 -63 -8 0
-96 89 -174 175 l-64 70 39 -63 c55 -90 199 -257 280 -325 145 -123 307 -215
456 -262 242 -74 467 -71 753 11 154 44 149 43 174 23 22 -18 24 -18 122 33
55 28 111 62 126 75 14 14 44 36 67 51 22 15 47 33 54 39 7 7 19 13 26 13 7 0
59 45 116 100 58 55 111 100 118 100 7 0 19 13 25 30 15 35 136 170 152 170
17 0 55 44 55 62 0 9 6 23 13 30 7 7 30 34 51 61 21 26 43 47 50 47 12 0 80
103 90 136 4 12 18 34 33 50 31 33 113 191 113 217 0 10 8 32 17 50 9 18 16
36 15 40 -1 4 7 17 18 29 11 12 20 29 21 37 5 64 9 85 23 121 9 22 16 53 16
69 0 16 6 36 14 44 13 13 33 147 29 192 -1 11 -4 79 -7 150 -2 72 -9 155 -15
185 -22 106 -83 252 -131 310 -20 25 -20 24 1 -30 104 -267 102 -582 -5 -905
-32 -95 -85 -219 -92 -213 -1 2 17 57 41 123 24 66 46 134 50 150 3 17 -12
-17 -33 -75 -34 -94 -183 -404 -234 -487 -11 -18 -17 -33 -14 -33 2 0 28 38
56 85 28 47 53 85 56 85 14 0 -127 -231 -153 -251 -17 -13 -17 -12 -2 6 19 23
42 65 35 65 -8 0 -49 -75 -51 -93 -1 -10 -12 -28 -26 -40 l-23 -22 18 23 c11
12 16 22 13 22 -10 0 -92 -114 -89 -123 1 -5 -2 -6 -7 -2 -10 6 -34 -29 -25
-37 2 -3 -4 -11 -13 -19 -17 -13 -17 -13 -3 6 11 15 8 14 -12 -4 -15 -13 -25
-28 -21 -34 3 -6 2 -7 -4 -4 -13 8 -86 -67 -76 -77 5 -4 1 -6 -7 -4 -8 2 -14
-3 -13 -9 2 -7 -1 -12 -6 -10 -5 1 -40 -23 -78 -55 -77 -63 -402 -280 -476
-317 -26 -13 -45 -26 -43 -28 2 -2 42 14 87 37 101 49 77 27 -30 -29 -104 -54
-215 -96 -341 -128 -97 -26 -120 -28 -290 -27 -167 0 -194 3 -282 26 -167 45
-359 150 -478 260 l-45 41 40 -29 c92 -67 174 -119 247 -155 99 -50 115 -50
23 -1 -555 297 -880 965 -851 1752 19 548 185 1062 523 1625 190 316 356 539
572 767 35 38 62 68 59 68 -3 0 -51 -48 -107 -106z m1459 -3717 c0 -9 -162
-139 -225 -181 -75 -51 -61 -38 110 96 112 88 115 91 115 85z"/>
<path d="M7916 6354 c8 -87 -11 -167 -67 -278 -43 -86 -179 -295 -206 -318
-22 -17 -20 -14 79 133 79 118 143 240 153 294 3 17 -3 8 -13 -20 -39 -103
-138 -269 -227 -380 -47 -58 -80 -125 -54 -109 6 3 3 -8 -6 -26 -9 -17 -19
-29 -23 -25 -4 3 -10 46 -13 95 -7 97 -33 156 -93 213 -33 32 -113 72 -161 82
-16 3 -3 -5 30 -19 32 -14 73 -40 90 -57 l30 -32 -36 22 c-47 27 -58 27 -33
-1 11 -13 28 -35 37 -50 19 -30 47 -38 47 -12 0 23 18 7 40 -35 17 -34 18 -48
10 -122 -5 -46 -16 -104 -24 -128 -9 -24 -13 -47 -11 -52 3 -5 -1 -19 -10 -32
-8 -13 -12 -27 -8 -30 39 -40 140 71 349 386 103 155 149 248 170 347 19 91 8
164 -32 201 l-25 23 7 -70z"/>
<path d="M7595 6352 c-49 -1 -97 -5 -105 -8 -8 -3 -35 -8 -59 -10 -25 -2 -71
-13 -103 -24 -32 -11 -61 -19 -66 -18 -12 3 -62 -24 -62 -34 0 -4 -3 -7 -7 -7
-23 4 -43 -2 -43 -12 0 -8 12 -10 34 -6 25 4 36 1 40 -9 3 -9 10 -12 16 -9 6
3 30 -14 54 -39 24 -25 48 -46 52 -46 5 0 21 -11 35 -24 14 -13 35 -29 47 -35
12 -6 22 -17 22 -24 0 -13 22 -34 57 -54 18 -10 23 -6 54 53 19 35 39 64 45
64 6 0 21 25 33 56 13 31 30 58 37 61 8 3 11 10 8 15 -4 6 -2 13 4 17 17 11
24 70 10 84 -9 8 -43 11 -103 9z"/>
<path d="M4871 6194 c0 -11 3 -14 6 -6 3 7 2 16 -1 19 -3 4 -6 -2 -5 -13z"/>
<path d="M4861 6154 c0 -11 3 -14 6 -6 3 7 2 16 -1 19 -3 4 -6 -2 -5 -13z"/>
<path d="M4852 6110 c0 -14 2 -19 5 -12 2 6 2 18 0 25 -3 6 -5 1 -5 -13z"/>
<path d="M4842 6060 c0 -14 2 -19 5 -12 2 6 2 18 0 25 -3 6 -5 1 -5 -13z"/>
<path d="M4832 6000 c0 -14 2 -19 5 -12 2 6 2 18 0 25 -3 6 -5 1 -5 -13z"/>
<path d="M6780 5974 c-132 -39 -357 -156 -466 -243 -11 -9 -4 -1 15 17 20 18
75 59 123 90 48 30 86 57 84 60 -2 2 -45 -22 -95 -53 -296 -183 -571 -478
-881 -945 -117 -176 -150 -240 -150 -290 0 -31 68 -241 70 -214 0 6 -4 24 -10
40 -17 51 -38 154 -32 154 12 0 51 -100 86 -220 43 -145 249 -814 356 -1155
167 -533 326 -999 427 -1245 98 -238 150 -315 65 -95 -105 274 -194 533 -323
945 -33 107 -76 242 -94 300 -43 133 -163 518 -210 675 -20 66 -48 156 -62
200 -115 376 -143 474 -143 508 0 58 45 202 60 192 3 -2 21 20 39 50 18 30 39
59 47 66 8 6 14 20 14 30 0 9 6 24 13 31 38 42 79 116 87 160 12 59 56 124
192 283 216 250 412 413 618 514 58 28 128 63 155 78 28 14 79 41 114 60 l63
33 -38 -1 c-22 0 -77 -11 -124 -25z m-883 -656 c-87 -104 -213 -276 -329 -451
-65 -98 -118 -175 -118 -171 0 21 204 328 309 464 70 92 171 210 178 210 2 0
-15 -24 -40 -52z"/>
<path d="M4822 5945 c0 -16 2 -22 5 -12 2 9 2 23 0 30 -3 6 -5 -1 -5 -18z"/>
<path d="M6564 5914 c-18 -14 -18 -14 6 -3 31 14 36 19 24 19 -6 0 -19 -7 -30
-16z"/>
<path d="M4812 5875 c0 -16 2 -22 5 -12 2 9 2 23 0 30 -3 6 -5 -1 -5 -18z"/>
<path d="M4802 5815 c0 -16 2 -22 5 -12 2 9 2 23 0 30 -3 6 -5 -1 -5 -18z"/>
<path d="M1008 5788 c-9 -13 -15 -27 -16 -32 0 -5 -4 -12 -9 -15 -20 -14 -74
-91 -102 -146 -35 -67 -40 -98 -15 -93 17 3 102 152 103 180 1 9 7 23 14 30
14 14 28 43 33 67 1 8 9 18 16 22 8 6 9 9 2 9 -7 0 -18 -10 -26 -22z"/>
<path d="M6103 5734 c-43 -43 -111 -129 -173 -219 -46 -66 -110 -166 -110
-171 0 -3 -11 -17 -25 -32 -14 -15 -25 -34 -24 -42 0 -13 1 -13 6 0 3 8 21 30
39 49 19 19 34 40 34 47 0 7 6 17 13 21 6 4 27 26 45 48 65 78 137 158 165
183 41 38 81 93 62 86 -12 -5 -11 1 6 30 32 55 16 54 -38 0z"/>
<path d="M4792 5735 c0 -16 2 -22 5 -12 2 9 2 23 0 30 -3 6 -5 -1 -5 -18z"/>
<path d="M4597 5668 c-9 -41 -17 -88 -17 -105 0 -16 -3 -33 -7 -37 -4 -3 -8
-14 -9 -24 -1 -9 -5 -42 -9 -72 -3 -30 -8 -68 -10 -85 -2 -16 -10 -77 -19
-135 -15 -108 -42 -332 -51 -430 -3 -30 -10 -89 -15 -130 -5 -41 -23 -226 -40
-410 -16 -184 -34 -378 -39 -430 -6 -52 -17 -171 -26 -265 -26 -283 -45 -454
-65 -590 -28 -188 -31 -213 -22 -190 11 29 29 69 72 160 20 44 43 95 51 113 8
17 17 32 21 32 5 0 8 4 8 10 0 5 14 38 30 72 17 34 30 70 30 80 0 10 5 18 11
18 5 0 8 4 5 8 -3 5 -7 22 -10 38 -3 16 -11 31 -18 33 -7 2 -25 16 -40 31 -15
15 -29 26 -32 23 -20 -20 -14 279 10 467 2 19 11 105 19 190 8 85 21 223 30
305 30 283 36 340 50 485 11 124 45 416 59 515 2 17 7 53 11 80 3 28 15 105
26 173 24 140 21 178 -4 70z"/>
<path d="M4782 5675 c0 -16 2 -22 5 -12 2 9 2 23 0 30 -3 6 -5 -1 -5 -18z"/>
<path d="M4772 5605 c0 -16 2 -22 5 -12 2 9 2 23 0 30 -3 6 -5 -1 -5 -18z"/>
<path d="M4762 5530 c0 -19 2 -27 5 -17 2 9 2 25 0 35 -3 9 -5 1 -5 -18z"/>
<path d="M4752 5455 c0 -16 2 -22 5 -12 2 9 2 23 0 30 -3 6 -5 -1 -5 -18z"/>
<path d="M4742 5380 c0 -19 2 -27 5 -17 2 9 2 25 0 35 -3 9 -5 1 -5 -18z"/>
<path d="M4732 5300 c0 -19 2 -27 5 -17 2 9 2 25 0 35 -3 9 -5 1 -5 -18z"/>
<path d="M4722 5225 c0 -16 2 -22 5 -12 2 9 2 23 0 30 -3 6 -5 -1 -5 -18z"/>
<path d="M5691 5157 c-13 -21 -12 -21 5 -5 10 10 16 20 13 22 -3 3 -11 -5 -18
-17z"/>
<path d="M4712 5140 c0 -19 2 -27 5 -17 2 9 2 25 0 35 -3 9 -5 1 -5 -18z"/>
<path d="M4702 5070 c0 -19 2 -27 5 -17 2 9 2 25 0 35 -3 9 -5 1 -5 -18z"/>
<path d="M802 5010 c0 -14 2 -19 5 -12 2 6 2 18 0 25 -3 6 -5 1 -5 -13z"/>
<path d="M4693 4975 c0 -22 2 -30 4 -17 2 12 2 30 0 40 -3 9 -5 -1 -4 -23z"/>
<path d="M2935 4985 c-94 -20 -168 -52 -247 -105 -76 -50 -143 -109 -134 -117
3 -3 51 25 108 63 57 37 137 82 178 98 66 27 86 30 175 30 79 -1 112 -5 157
-23 138 -53 263 -175 338 -326 22 -44 40 -73 40 -65 0 8 -23 62 -51 120 -27
57 -48 113 -46 122 8 29 -88 113 -178 157 -120 59 -219 73 -340 46z"/>
<path d="M792 4960 c0 -14 2 -19 5 -12 2 6 2 18 0 25 -3 6 -5 1 -5 -13z"/>
<path d="M782 4900 c0 -14 2 -19 5 -12 2 6 2 18 0 25 -3 6 -5 1 -5 -13z"/>
<path d="M4683 4885 c0 -22 2 -30 4 -17 2 12 2 30 0 40 -3 9 -5 -1 -4 -23z"/>
<path d="M772 4835 c0 -16 2 -22 5 -12 2 9 2 23 0 30 -3 6 -5 -1 -5 -18z"/>
<path d="M4673 4795 c0 -22 2 -30 4 -17 2 12 2 30 0 40 -3 9 -5 -1 -4 -23z"/>
<path d="M763 4755 c0 -22 2 -30 4 -17 2 12 2 30 0 40 -3 9 -5 -1 -4 -23z"/>
<path d="M2656 4764 c-8 -22 -8 -24 9 -24 8 0 19 9 25 20 9 17 8 20 -9 20 -10
0 -22 -7 -25 -16z"/>
<path d="M3055 4738 c-27 -5 -66 -12 -85 -15 -29 -5 -32 -7 -13 -12 12 -3 33
-16 47 -28 14 -13 26 -20 27 -15 0 4 4 -3 9 -15 7 -16 14 -21 27 -16 16 6 16
5 4 -10 -12 -15 -11 -17 2 -17 11 0 14 -5 10 -17 -5 -12 -2 -15 10 -10 10 4
18 0 21 -11 3 -9 18 -26 33 -37 14 -11 41 -35 58 -52 18 -18 37 -33 44 -33 6
0 11 -10 11 -22 0 -19 2 -20 10 -8 8 12 10 11 10 -6 0 -12 7 -24 15 -28 8 -3
15 -11 15 -19 0 -7 8 -22 18 -33 17 -18 64 -110 76 -146 11 -34 23 -17 30 40
10 93 -26 303 -70 399 -17 37 -18 65 -3 80 18 18 1 33 -26 23 -24 -9 -41 -8
-128 10 -55 12 -83 11 -152 -2z"/>
<path d="M4663 4695 c0 -22 2 -30 4 -17 2 12 2 30 0 40 -3 9 -5 -1 -4 -23z"/>
<path d="M2600 4702 c-25 -10 -61 -28 -80 -40 -45 -28 -53 -28 -47 4 4 25 3
24 -34 -12 -45 -44 -61 -97 -36 -121 13 -13 20 -14 46 -4 16 7 38 22 48 33 37
41 103 62 103 34 0 -24 15 -28 127 -32 150 -5 186 -19 285 -114 46 -43 84 -75
86 -70 2 5 -9 32 -23 62 l-26 53 41 -44 c84 -92 158 -256 184 -410 17 -103 21
-185 7 -163 -5 8 -10 -55 -14 -150 -9 -287 -63 -466 -201 -672 -25 -38 -46
-71 -46 -73 0 -9 83 92 121 149 47 68 106 191 139 288 32 96 47 299 32 459
-20 219 -75 390 -179 548 -71 108 -155 183 -271 241 -111 55 -186 65 -262 34z
m259 -44 c48 -23 161 -113 161 -128 0 -6 -24 10 -54 34 -54 44 -156 98 -208
111 -16 4 -28 11 -28 15 0 12 79 -8 129 -32z"/>
<path d="M753 4635 c0 -27 2 -38 4 -22 2 15 2 37 0 50 -2 12 -4 0 -4 -28z"/>
<path d="M5366 4640 c-15 -26 -15 -30 -2 -30 9 0 18 11 22 25 9 37 1 39 -20 5z"/>
<path d="M4653 4610 c0 -25 2 -35 4 -22 2 12 2 32 0 45 -2 12 -4 2 -4 -23z"/>
<path d="M4643 4505 c0 -22 2 -30 4 -17 2 12 2 30 0 40 -3 9 -5 -1 -4 -23z"/>
<path d="M744 4400 c0 -69 1 -97 3 -62 2 34 2 90 0 125 -2 34 -3 6 -3 -63z"/>
<path d="M3562 4480 c0 -8 4 -26 8 -40 6 -20 8 -21 8 -5 0 11 -3 29 -8 40 -5
12 -8 14 -8 5z"/>
<path d="M4633 4415 c0 -22 2 -30 4 -17 2 12 2 30 0 40 -3 9 -5 -1 -4 -23z"/>
<path d="M3582 4380 c0 -19 2 -27 5 -17 2 9 2 25 0 35 -3 9 -5 1 -5 -18z"/>
<path d="M5481 4370 c0 -8 4 -22 9 -30 12 -18 12 -2 0 25 -6 13 -9 15 -9 5z"/>
<path d="M602 4340 c0 -14 2 -19 5 -12 2 6 2 18 0 25 -3 6 -5 1 -5 -13z"/>
<path d="M4623 4315 c0 -22 2 -30 4 -17 2 12 2 30 0 40 -3 9 -5 -1 -4 -23z"/>
<path d="M3593 4300 c0 -25 2 -35 4 -22 2 12 2 32 0 45 -2 12 -4 2 -4 -23z"/>
<path d="M5501 4304 c0 -11 3 -14 6 -6 3 7 2 16 -1 19 -3 4 -6 -2 -5 -13z"/>
<path d="M5370 4250 c0 -5 5 -10 11 -10 5 0 7 5 4 10 -3 6 -8 10 -11 10 -2 0
-4 -4 -4 -10z"/>
<path d="M4613 4215 c0 -22 2 -30 4 -17 2 12 2 30 0 40 -3 9 -5 -1 -4 -23z"/>
<path d="M5360 4217 c0 -8 -18 -51 -40 -95 -22 -44 -40 -85 -40 -91 0 -6 -3
-11 -8 -11 -6 0 -55 -95 -57 -110 0 -3 -4 -10 -8 -16 -8 -14 17 -67 27 -57 4
4 4 0 1 -9 -4 -9 -2 -19 4 -23 6 -3 11 1 11 9 0 9 5 16 10 16 6 0 10 -7 10
-16 0 -8 4 -13 8 -10 16 10 48 -22 66 -66 10 -24 21 -50 25 -58 4 -8 16 -42
26 -75 10 -33 22 -64 27 -69 4 -6 8 -18 8 -28 0 -10 4 -26 9 -36 12 -24 33
-84 35 -102 1 -8 7 -24 12 -35 6 -11 16 -40 23 -65 7 -25 21 -67 31 -95 11
-27 24 -72 31 -100 6 -27 16 -54 20 -60 5 -5 9 -17 9 -26 0 -9 7 -30 15 -45 8
-16 15 -37 15 -46 0 -9 4 -19 9 -22 4 -3 11 -28 15 -55 4 -28 11 -53 16 -56 6
-3 10 -14 10 -24 0 -10 7 -31 15 -47 8 -16 21 -59 30 -94 9 -36 20 -74 24 -85
24 -58 31 -79 52 -156 12 -46 26 -90 32 -97 5 -7 7 -15 4 -19 -4 -3 0 -15 8
-27 8 -11 15 -30 15 -43 0 -12 4 -24 8 -27 5 -3 14 -30 21 -60 7 -30 21 -73
32 -95 10 -22 19 -51 19 -65 0 -14 4 -27 9 -31 5 -3 13 -20 17 -38 3 -17 11
-43 17 -57 6 -14 11 -30 12 -35 1 -15 26 -95 40 -130 7 -16 18 -54 25 -84 7
-30 19 -66 26 -80 8 -14 14 -34 14 -44 0 -10 6 -28 14 -40 8 -12 17 -37 21
-56 4 -19 16 -50 26 -68 11 -19 19 -40 19 -48 0 -9 4 -23 9 -33 25 -45 51
-110 51 -124 0 -9 6 -21 14 -27 8 -7 17 -27 20 -46 4 -19 12 -35 19 -35 8 0 8
-3 -2 -9 -7 -5 -11 -13 -7 -19 3 -6 0 -12 -6 -15 -13 -5 70 -1 184 8 70 6 194
37 239 61 23 11 34 13 37 5 5 -16 22 -13 22 4 0 14 3 14 23 1 12 -8 45 -17 72
-20 40 -5 45 -4 26 4 -13 6 -36 12 -50 13 -14 2 -36 9 -49 16 -12 6 -27 9 -32
6 -6 -3 -15 -3 -22 1 -8 5 -6 10 8 15 16 6 16 8 2 8 -11 1 -15 6 -12 16 4 8 1
15 -7 15 -7 0 -9 3 -6 7 4 3 -10 21 -30 39 -29 26 -41 31 -55 23 -14 -7 -16
-6 -12 6 4 8 1 15 -5 15 -6 0 -11 -6 -11 -12 0 -10 -3 -9 -9 1 -5 7 -14 11
-20 7 -7 -5 -9 -1 -5 8 3 9 1 16 -4 16 -6 0 -13 9 -17 19 -3 10 -15 21 -26 24
-10 3 -24 19 -30 36 -6 17 -14 31 -18 31 -4 0 -29 35 -56 78 -27 42 -53 79
-57 80 -4 2 -8 10 -8 18 0 8 -7 17 -15 20 -8 4 -15 14 -15 24 0 9 -18 50 -40
90 -22 40 -40 78 -40 84 0 6 -7 20 -15 30 -8 11 -15 28 -15 38 0 10 -4 18 -9
18 -8 0 -25 49 -26 75 0 6 -8 19 -17 29 -10 11 -18 30 -18 43 0 13 -4 23 -10
23 -5 0 -12 16 -16 35 -3 19 -12 35 -18 35 -7 0 -13 17 -14 37 -2 21 -7 40
-12 43 -4 3 -11 22 -15 43 -4 20 -11 40 -16 43 -5 3 -9 14 -9 24 0 10 -7 25
-15 34 -9 8 -15 19 -15 23 2 14 -22 97 -37 131 -8 18 -20 54 -28 80 -7 26 -36
115 -64 197 -28 83 -58 175 -68 205 -9 30 -29 93 -45 139 -15 46 -28 92 -28
102 0 11 -4 19 -9 19 -5 0 -12 20 -15 45 -4 25 -11 45 -17 45 -5 0 -9 15 -9
33 0 18 -4 37 -9 42 -8 9 -15 31 -58 175 -9 30 -26 84 -39 120 -12 36 -25 81
-29 100 -3 19 -10 44 -14 55 -27 65 -31 78 -31 94 0 9 -9 36 -20 59 -11 22
-20 50 -20 61 0 11 -4 22 -9 25 -5 3 -11 20 -14 38 -3 18 -10 51 -17 73 -6 22
-17 62 -24 89 -11 47 -36 76 -36 43z"/>
<path d="M753 4175 c0 -27 2 -38 4 -22 2 15 2 37 0 50 -2 12 -4 0 -4 -28z"/>
<path d="M5531 4210 c0 -8 4 -24 9 -35 5 -13 9 -14 9 -5 0 8 -4 24 -9 35 -5
13 -9 14 -9 5z"/>
<path d="M3418 4135 c2 -14 6 -25 8 -25 2 0 4 11 4 25 0 14 -4 25 -9 25 -4 0
-6 -11 -3 -25z"/>
<path d="M3593 4105 c0 -33 2 -45 4 -27 2 18 2 45 0 60 -2 15 -4 0 -4 -33z"/>
<path d="M4603 4120 c0 -25 2 -35 4 -22 2 12 2 32 0 45 -2 12 -4 2 -4 -23z"/>
<path d="M5551 4140 c0 -8 4 -22 9 -30 12 -18 12 -2 0 25 -6 13 -9 15 -9 5z"/>
<path d="M588 4024 c-7 -279 14 -491 71 -719 12 -50 46 -143 55 -152 3 -3 6
-14 6 -24 0 -9 7 -30 15 -46 8 -15 22 -47 32 -70 9 -24 20 -43 25 -43 4 0 8
-11 8 -24 0 -13 7 -29 15 -36 8 -7 15 -19 15 -27 0 -15 29 -64 45 -75 6 -5 6
-8 0 -8 -6 0 -6 -3 1 -8 20 -14 44 -57 44 -78 0 -12 7 -25 16 -28 8 -3 13 -10
10 -15 -3 -4 3 -16 14 -26 11 -10 20 -14 20 -10 0 4 8 -2 19 -13 10 -12 35
-29 55 -37 20 -9 34 -20 31 -24 -3 -5 3 -7 13 -4 11 2 26 -3 35 -11 8 -9 20
-16 26 -16 6 0 11 -4 11 -10 0 -5 7 -10 15 -10 21 0 95 -33 95 -43 0 -4 4 -5
10 -2 5 3 20 -1 33 -10 36 -23 147 -46 277 -58 117 -10 235 -3 225 14 -4 5
-15 9 -25 9 -11 0 -44 11 -74 25 -30 14 -57 25 -61 25 -3 0 -24 12 -48 27 -57
38 -79 51 -97 60 -18 8 -22 12 -75 58 -22 19 -43 35 -47 35 -5 0 -8 7 -8 15 0
8 -4 15 -10 15 -15 0 -50 33 -44 42 3 4 -3 8 -14 8 -18 0 -49 47 -37 58 2 3
-1 12 -8 20 -9 13 -9 14 1 8 22 -13 13 -1 -34 44 -26 25 -44 39 -40 33 10 -19
-14 -16 -36 4 -18 16 -18 16 -12 -3 7 -17 6 -17 -9 -5 -9 7 -17 18 -17 23 0 6
-11 19 -25 30 -14 11 -25 26 -25 35 0 12 -3 13 -13 5 -10 -9 -16 -4 -26 23 -7
19 -19 35 -27 35 -8 0 -14 6 -14 13 0 7 -9 23 -20 35 -11 12 -20 26 -20 32 0
5 -4 10 -10 10 -5 0 -21 24 -34 53 -14 28 -26 45 -26 37 0 -8 -8 1 -16 20 -39
85 -50 106 -61 120 -6 8 -13 20 -14 25 -2 12 -15 45 -40 102 -11 24 -19 46
-19 51 0 5 -9 28 -21 51 -11 24 -23 59 -26 77 -3 19 -10 37 -14 40 -5 3 -9 15
-9 27 0 13 -7 50 -16 82 -8 33 -24 115 -34 183 -9 68 -20 126 -24 129 -3 4 -7
-43 -8 -103z"/>
<path d="M762 4060 c0 -19 2 -27 5 -17 2 9 2 25 0 35 -3 9 -5 1 -5 -18z"/>
<path d="M5571 4074 c0 -11 3 -14 6 -6 3 7 2 16 -1 19 -3 4 -6 -2 -5 -13z"/>
<path d="M4593 4015 c0 -22 2 -30 4 -17 2 12 2 30 0 40 -3 9 -5 -1 -4 -23z"/>
<path d="M3582 4010 c0 -19 2 -27 5 -17 2 9 2 25 0 35 -3 9 -5 1 -5 -18z"/>
<path d="M772 3985 c0 -16 2 -22 5 -12 2 9 2 23 0 30 -3 6 -5 -1 -5 -18z"/>
<path d="M5601 3980 c0 -8 4 -24 9 -35 5 -13 9 -14 9 -5 0 8 -4 24 -9 35 -5
13 -9 14 -9 5z"/>
<path d="M3571 3945 c-1 -11 -4 -31 -6 -45 l-6 -25 11 25 c6 13 9 33 7 45 -4
19 -4 19 -6 0z"/>
<path d="M4582 3910 c0 -19 2 -27 5 -17 2 9 2 25 0 35 -3 9 -5 1 -5 -18z"/>
<path d="M781 3914 c0 -11 3 -14 6 -6 3 7 2 16 -1 19 -3 4 -6 -2 -5 -13z"/>
<path d="M4971 3874 c-12 -27 -11 -28 4 -12 10 9 16 21 13 28 -2 7 -10 -1 -17
-16z"/>
<path d="M5632 3880 c0 -8 8 -37 18 -65 10 -27 18 -43 18 -35 0 8 -8 38 -18
65 -10 28 -18 43 -18 35z"/>
<path d="M791 3864 c0 -11 3 -14 6 -6 3 7 2 16 -1 19 -3 4 -6 -2 -5 -13z"/>
<path d="M3552 3850 c0 -14 2 -19 5 -12 2 6 2 18 0 25 -3 6 -5 1 -5 -13z"/>
<path d="M5023 3850 c-35 -21 -63 -72 -191 -345 -68 -147 -104 -223 -223 -474
-33 -68 -58 -126 -56 -127 2 -2 42 78 91 177 48 100 89 179 92 176 3 -3 -4
-23 -15 -46 -31 -59 -26 -67 20 -31 42 34 120 175 155 279 9 29 26 67 38 84
35 53 76 134 76 150 0 8 6 17 14 20 7 3 16 21 20 41 8 40 13 45 50 48 20 2 23
5 13 17 -10 11 -9 13 3 9 15 -4 26 -24 73 -128 34 -74 256 -750 459 -1390 309
-979 398 -1217 525 -1399 24 -35 42 -65 41 -67 -2 -2 -27 20 -56 48 -29 28
-52 47 -52 43 0 -22 77 -130 121 -169 146 -131 312 -144 609 -46 129 43 494
199 543 232 31 22 37 58 10 58 -17 1 -17 1 0 14 23 17 22 26 -3 26 -29 0 -81
-28 -79 -43 3 -25 -1 -37 -14 -37 -7 0 -30 -9 -51 -20 -22 -10 -42 -17 -47
-15 -4 3 -9 1 -11 -5 -2 -6 -31 -12 -66 -15 -35 -3 -85 -14 -113 -26 -51 -23
-63 -38 -14 -19 48 18 39 3 -12 -20 -94 -42 -280 -98 -378 -115 -144 -24 -236
-8 -326 56 -43 30 -30 34 22 5 24 -13 55 -27 69 -30 14 -4 5 3 -18 15 -58 29
-169 140 -210 211 -51 86 -134 277 -190 438 -48 140 -137 412 -297 915 -42
132 -80 251 -85 265 -5 14 -37 113 -71 220 -34 107 -108 339 -166 515 -57 176
-116 355 -129 397 -39 118 -96 154 -171 108z m-113 -237 c-29 -59 -65 -136
-81 -170 -34 -73 -48 -86 -19 -17 42 97 143 304 147 300 3 -2 -19 -53 -47
-113z"/>
<path d="M4572 3810 c0 -19 2 -27 5 -17 2 9 2 25 0 35 -3 9 -5 1 -5 -18z"/>
<path d="M811 3774 c0 -11 3 -14 6 -6 3 7 2 16 -1 19 -3 4 -6 -2 -5 -13z"/>
<path d="M5671 3750 c0 -8 4 -24 9 -35 5 -13 9 -14 9 -5 0 8 -4 24 -9 35 -5
13 -9 14 -9 5z"/>
<path d="M821 3734 c0 -11 3 -14 6 -6 3 7 2 16 -1 19 -3 4 -6 -2 -5 -13z"/>
<path d="M4562 3700 c0 -19 2 -27 5 -17 2 9 2 25 0 35 -3 9 -5 1 -5 -18z"/>
<path d="M832 3700 c0 -8 6 -31 13 -50 7 -19 13 -28 13 -20 0 8 -6 31 -13 50
-7 19 -13 28 -13 20z"/>
<path d="M4837 3593 c-10 -20 -16 -38 -13 -40 2 -3 12 12 21 32 23 47 15 54
-8 8z"/>
<path d="M5712 3620 c0 -8 8 -37 18 -65 10 -27 18 -43 18 -35 0 8 -8 38 -18
65 -10 28 -18 43 -18 35z"/>
<path d="M865 3590 c21 -70 102 -256 151 -343 143 -257 328 -445 551 -560 240
-124 486 -153 803 -97 85 15 138 32 203 62 48 23 87 45 87 49 0 4 9 11 21 14
11 4 19 8 17 10 -2 2 -43 -12 -91 -31 -289 -116 -609 -130 -857 -37 -140 53
-266 132 -395 247 -27 25 -51 41 -53 36 -5 -12 -24 3 -101 80 -108 108 -223
298 -298 495 -34 88 -53 125 -38 75z"/>
<path d="M3365 3540 c-3 -5 -1 -10 4 -10 6 0 11 5 11 10 0 6 -2 10 -4 10 -3 0
-8 -4 -11 -10z"/>
<path d="M4810 3538 c0 -3 -16 -40 -35 -82 -19 -42 -32 -76 -29 -76 8 0 75
153 69 158 -3 3 -5 3 -5 0z"/>
<path d="M3355 3510 c-10 -17 -37 -112 -32 -116 4 -4 28 55 42 104 7 23 1 30
-10 12z"/>
<path d="M5771 3430 c0 -8 4 -24 9 -35 5 -13 9 -14 9 -5 0 8 -4 24 -9 35 -5
13 -9 14 -9 5z"/>
<path d="M5812 3300 c0 -8 6 -31 13 -50 7 -19 13 -28 13 -20 0 8 -6 31 -13 50
-7 19 -13 28 -13 20z"/>
<path d="M5871 3110 c0 -8 4 -24 9 -35 5 -13 9 -14 9 -5 0 8 -4 24 -9 35 -5
13 -9 14 -9 5z"/>
<path d="M5922 2950 c0 -8 8 -37 18 -65 10 -27 18 -43 18 -35 0 8 -8 38 -18
65 -10 28 -18 43 -18 35z"/>
<path d="M4527 2855 c-9 -19 -15 -35 -12 -35 7 0 37 61 33 66 -3 2 -12 -12
-21 -31z"/>
<path d="M1290 2781 c0 -5 7 -11 14 -14 10 -4 13 -1 9 9 -6 15 -23 19 -23 5z"/>
<path d="M4486 2773 c-6 -14 -5 -15 5 -6 7 7 10 15 7 18 -3 3 -9 -2 -12 -12z"/>
<path d="M4466 2733 c-6 -14 -5 -15 5 -6 7 7 10 15 7 18 -3 3 -9 -2 -12 -12z"/>
<path d="M5991 2730 c0 -8 4 -22 9 -30 12 -18 12 -2 0 25 -6 13 -9 15 -9 5z"/>
<path d="M4440 2689 c-7 -11 -10 -23 -7 -25 2 -2 9 7 15 21 14 30 7 33 -8 4z"/>
<path d="M2707 2655 c-32 -19 -88 -44 -125 -56 -37 -11 -86 -29 -110 -40 -35
-16 -41 -21 -30 -33 11 -11 22 -9 73 12 80 35 278 152 255 151 -3 0 -31 -15
-63 -34z"/>
<path d="M4404 2618 c-9 -18 -37 -71 -62 -118 -25 -47 -40 -80 -34 -75 14 13
125 225 118 225 -3 0 -13 -15 -22 -32z"/>
<path d="M6041 2580 c0 -8 4 -22 9 -30 12 -18 12 -2 0 25 -6 13 -9 15 -9 5z"/>
<path d="M6061 2520 c0 -8 4 -22 9 -30 12 -18 12 -2 0 25 -6 13 -9 15 -9 5z"/>
<path d="M6091 2435 c1 -19 18 -51 18 -35 0 8 -4 22 -9 30 -5 8 -9 11 -9 5z"/>
<path d="M1858 2403 c12 -2 30 -2 40 0 9 3 -1 5 -23 4 -22 0 -30 -2 -17 -4z"/>
<path d="M4244 2328 c-161 -282 -428 -639 -649 -868 -60 -63 -94 -101 -75 -85
55 47 154 151 253 265 50 58 99 114 111 125 l20 20 -14 -20 c-89 -125 -401
-453 -443 -463 -6 -2 -2 6 11 16 48 43 18 29 -40 -19 -126 -101 -308 -214
-543 -336 -145 -75 -170 -92 -69 -47 116 52 144 63 144 59 0 -20 -348 -165
-510 -213 -264 -78 -501 -79 -600 -1 l-25 19 37 -15 c49 -20 71 -19 33 2 -174
93 -210 291 -104 562 31 78 101 214 125 241 20 24 125 212 120 217 -12 12
-160 -205 -230 -339 -67 -127 -104 -234 -118 -341 -9 -69 -8 -91 6 -139 9 -31
22 -63 29 -70 21 -23 67 -86 67 -94 0 -3 -7 -1 -16 7 -14 11 -15 9 -12 -21 2
-26 13 -41 45 -66 92 -70 247 -102 404 -85 92 10 220 39 229 51 3 3 28 13 55
20 53 15 86 31 375 188 265 144 454 267 431 282 -7 3 18 27 56 56 91 66 103
72 68 35 l-30 -32 30 11 c72 27 151 74 197 118 119 111 233 238 219 244 -19 7
42 109 85 139 46 34 58 57 79 154 2 6 29 51 60 100 125 193 251 405 242 405
-3 0 -27 -37 -53 -82z m-964 -1155 c-1 -8 -62 -48 -130 -85 -38 -21 -34 -17
63 53 53 38 67 45 67 32z"/>
<path d="M4294 2363 c-15 -27 -33 -58 -41 -70 -10 -17 -10 -21 0 -18 15 7 33
34 58 91 24 58 17 56 -17 -3z"/>
<path d="M6116 2360 c4 -14 13 -38 20 -55 11 -24 13 -25 8 -5 -4 14 -13 39
-20 55 -11 24 -13 25 -8 5z"/>
<path d="M1340 2305 c14 -8 32 -14 40 -14 8 0 0 6 -19 14 -42 19 -54 19 -21 0z"/>
<path d="M1978 2253 c7 -3 16 -2 19 1 4 3 -2 6 -13 5 -11 0 -14 -3 -6 -6z"/>
<path d="M1908 2243 c7 -3 16 -2 19 1 4 3 -2 6 -13 5 -11 0 -14 -3 -6 -6z"/>
<path d="M1683 2233 c9 -2 25 -2 35 0 9 3 1 5 -18 5 -19 0 -27 -2 -17 -5z"/>
<path d="M1798 2233 c12 -2 30 -2 40 0 9 3 -1 5 -23 4 -22 0 -30 -2 -17 -4z"/>
<path d="M6166 2218 c4 -13 28 -79 54 -148 221 -584 409 -898 613 -1019 31
-18 94 -46 139 -62 71 -26 92 -29 147 -23 35 3 80 11 99 18 35 12 32 13 -63
19 -59 3 -125 14 -160 26 -150 50 -155 53 -201 107 -26 30 -50 51 -55 48 -14
-8 -101 79 -163 166 -105 145 -267 494 -386 828 -13 34 -25 62 -27 62 -2 0 -1
-10 3 -22z"/>
<path d="M3882 1945 c-12 -15 -28 -52 -37 -83 -10 -31 -23 -69 -31 -84 -28
-54 -5 -27 40 47 25 42 53 86 61 99 13 20 13 25 1 35 -11 9 -18 7 -34 -14z"/>
<path d="M2138 1889 c-11 -6 -18 -22 -18 -39 0 -15 -16 -61 -35 -100 -50 -106
-60 -165 -40 -242 67 -269 260 -399 590 -401 211 -1 320 23 473 105 87 46 171
98 159 98 -2 0 -45 -20 -93 -44 -208 -102 -415 -145 -598 -124 -83 9 -183 36
-234 62 -16 8 -32 12 -36 9 -3 -4 -6 -1 -6 6 0 7 -4 9 -10 6 -5 -3 -10 1 -10
10 0 9 -4 14 -9 11 -5 -3 -11 3 -14 14 -4 14 -14 20 -35 20 -22 0 -40 11 -72
46 -54 58 -81 121 -86 198 l-5 61 19 -55 c33 -97 60 -137 76 -112 7 12 8 213
0 254 -5 28 0 50 20 94 31 67 32 80 9 93 -17 10 -17 10 0 11 21 0 22 16 1 24
-21 8 -26 7 -46 -5z"/>
<path d="M1986 1618 c-22 -34 -18 -54 8 -35 11 8 17 22 14 38 l-3 24 -19 -27z"/>
<path d="M6481 1605 c0 -5 6 -19 14 -29 8 -11 15 -15 15 -10 0 6 -7 19 -15 30
-8 10 -14 15 -14 9z"/>
<path d="M2015 1285 c-4 -22 -16 -57 -26 -77 -11 -21 -19 -46 -19 -57 0 -11
-4 -23 -10 -26 -15 -9 -38 -102 -45 -175 -3 -35 -11 -68 -18 -72 -9 -6 -9 -8
0 -8 6 0 14 4 17 9 3 5 46 9 96 10 96 1 230 23 290 47 20 8 66 19 101 23 35 5
51 9 34 10 -16 1 -46 8 -66 15 -44 15 -128 68 -129 80 0 4 -11 17 -25 28 -14
11 -23 24 -20 28 3 5 -4 14 -15 20 -11 6 -20 16 -20 23 0 8 3 9 8 1 4 -6 16
-14 27 -18 17 -6 17 -4 -4 18 -14 15 -21 26 -16 26 5 0 0 6 -10 14 -11 8 -24
12 -29 9 -23 -15 -52 -10 -53 8 -2 23 1 24 21 3 9 -8 16 -11 16 -5 0 13 -18
24 -42 25 -12 1 -26 16 -37 41 l-18 40 -8 -40z"/>
<path d="M3208 1194 c-20 -14 -42 -27 -50 -28 -7 -1 -22 -7 -33 -13 -11 -6
-49 -19 -85 -28 -85 -24 -136 -50 -142 -73 -5 -19 -4 -19 46 0 69 26 265 123
296 148 36 28 12 23 -32 -6z"/>
<path d="M6910 850 c-8 -5 -10 -10 -5 -10 6 0 17 5 25 10 8 5 11 10 5 10 -5 0
-17 -5 -25 -10z"/>
<path d="M6408 753 c7 -3 16 -2 19 1 4 3 -2 6 -13 5 -11 0 -14 -3 -6 -6z"/>
<path d="M6568 753 c7 -3 16 -2 19 1 4 3 -2 6 -13 5 -11 0 -14 -3 -6 -6z"/>
<path d="M1928 743 c7 -3 16 -2 19 1 4 3 -2 6 -13 5 -11 0 -14 -3 -6 -6z"/>
<path d="M2268 743 c7 -3 16 -2 19 1 4 3 -2 6 -13 5 -11 0 -14 -3 -6 -6z"/>
<path d="M1978 733 c6 -2 18 -2 25 0 6 3 1 5 -13 5 -14 0 -19 -2 -12 -5z"/>
<path d="M2198 733 c7 -3 16 -2 19 1 4 3 -2 6 -13 5 -11 0 -14 -3 -6 -6z"/>
</g>
</svg>
